<svg width="107" height="34" viewBox="0 0 107 34" fill="none" xmlns="http://www.w3.org/2000/svg">
<path d="M43.8941 3.20956C40.369 -2.53371 30.5032 0.0523319 30.9639 6.06889C30.9801 6.27963 30.8702 6.48671 30.6773 6.57302C24.1397 8.76477 21.297 10.1853 18.5206 13.2536C16.6883 15.3337 15.4118 16.5163 14.0754 17.353C13.4394 17.7512 13.5894 18.861 14.3324 18.9657C14.9095 19.0471 15.1573 19.738 14.7338 20.1383C13.0552 21.7252 11.3423 22.5855 8.24386 23.7483C4.64157 25.5371 1.76081 26.6631 1.10446 27.9864C1.01966 28.1573 0.904564 28.207 1.05452 28.325C1.67887 28.8166 2.75039 29.7906 2.72528 30.5849C2.71921 30.7771 2.75811 30.9667 2.84144 31.1581C2.90515 31.3044 3.03454 31.4109 3.18561 31.4623C5.32566 32.1909 7.3118 30.9034 11.0261 27.6352C14.423 23.9343 15.8157 22.6809 16.9145 22.5012C16.9987 22.4875 17.0843 22.4913 17.1678 22.5089C18.3301 22.7544 20.1352 23.8087 23.3332 25.6917C26.9851 27.6152 29.2122 28.0426 32.6946 27.6912C33.2807 27.632 33.8052 28.0704 33.8281 28.6591L33.9978 33.0171C34.019 33.5626 34.4738 33.9901 35.0195 33.9778L35.1381 33.9752C35.7108 33.9622 36.1557 33.4718 36.1128 32.9006L35.7593 28.1893C35.7203 27.6703 36.0883 27.2108 36.598 27.1054C46.7862 24.9985 51.3216 15.4585 46.8184 7.78793C46.5431 7.31899 46.6479 6.71055 47.0811 6.38182C47.278 6.23237 47.4603 6.08956 47.6366 5.94611C48.2499 5.44696 47.988 4.47715 47.2623 4.16283C47.1463 4.11254 47.0249 4.05797 46.8945 3.99793C46.2215 3.76503 45.7437 3.69473 45.1755 3.78139C44.6737 3.85792 44.1596 3.64212 43.8941 3.20956Z" fill="#3F3F3F"/>
<path d="M56.5227 23.1918C55.517 23.1918 54.652 22.9787 53.9276 22.5526C53.2074 22.1222 52.6534 21.5256 52.2656 20.7628C51.8821 20 51.6903 19.1222 51.6903 18.1293C51.6903 17.1236 51.8842 16.2415 52.272 15.483C52.6641 14.7202 53.2202 14.1257 53.9403 13.6996C54.6605 13.2692 55.517 13.054 56.5099 13.054C57.3665 13.054 58.1165 13.2095 58.7599 13.5206C59.4034 13.8317 59.9126 14.2685 60.2876 14.831C60.6626 15.3935 60.8693 16.054 60.9077 16.8125H58.3381C58.2656 16.3224 58.0739 15.9283 57.7628 15.63C57.456 15.3274 57.0533 15.1761 56.5547 15.1761C56.1328 15.1761 55.7642 15.2912 55.4489 15.5213C55.1378 15.7472 54.8949 16.0774 54.7202 16.5121C54.5455 16.9467 54.4581 17.473 54.4581 18.0909C54.4581 18.7173 54.5433 19.25 54.7138 19.6889C54.8885 20.1278 55.1335 20.4624 55.4489 20.6925C55.7642 20.9226 56.1328 21.0376 56.5547 21.0376C56.8658 21.0376 57.1449 20.9737 57.392 20.8459C57.6435 20.718 57.8501 20.5327 58.0121 20.2898C58.1783 20.0426 58.2869 19.7464 58.3381 19.4013H60.9077C60.8651 20.1513 60.6605 20.8118 60.294 21.3828C59.9318 21.9496 59.4311 22.3928 58.7919 22.7124C58.1527 23.032 57.3963 23.1918 56.5227 23.1918ZM63.9341 17.3239V23H61.2111V9.90909H63.8574V14.9141H63.9725C64.1941 14.3345 64.552 13.8807 65.0463 13.5526C65.5406 13.2202 66.1607 13.054 66.9064 13.054C67.5882 13.054 68.1827 13.2031 68.6898 13.5014C69.2012 13.7955 69.5975 14.2195 69.8787 14.7734C70.1642 15.3232 70.3049 15.9815 70.3006 16.7486V23H67.5776V17.2344C67.5818 16.6293 67.4284 16.1584 67.1174 15.8217C66.8105 15.4851 66.3801 15.3168 65.8262 15.3168C65.4554 15.3168 65.1273 15.3956 64.8418 15.5533C64.5605 15.7109 64.3389 15.9411 64.177 16.2436C64.0193 16.5419 63.9384 16.902 63.9341 17.3239ZM71.0035 23V13.1818H73.7265V23H71.0035ZM72.3714 11.9162C71.9666 11.9162 71.6193 11.782 71.3295 11.5135C71.044 11.2408 70.9012 10.9148 70.9012 10.5355C70.9012 10.1605 71.044 9.83878 71.3295 9.57031C71.6193 9.29758 71.9666 9.16122 72.3714 9.16122C72.7762 9.16122 73.1214 9.29758 73.4069 9.57031C73.6967 9.83878 73.8416 10.1605 73.8416 10.5355C73.8416 10.9148 73.6967 11.2408 73.4069 11.5135C73.1214 11.782 72.7762 11.9162 72.3714 11.9162ZM74.4678 26.6818V13.1818H77.1525V14.831H77.2739C77.3932 14.5668 77.5658 14.2983 77.7917 14.0256C78.0218 13.7486 78.3201 13.5185 78.6866 13.3352C79.0573 13.1477 79.5175 13.054 80.0673 13.054C80.7832 13.054 81.4437 13.2415 82.0488 13.6165C82.6539 13.9872 83.1376 14.5476 83.4998 15.2976C83.862 16.0433 84.0431 16.9787 84.0431 18.1037C84.0431 19.1989 83.8663 20.1236 83.5126 20.8778C83.1631 21.6278 82.6859 22.1967 82.0807 22.5845C81.4799 22.968 80.8066 23.1598 80.0609 23.1598C79.5325 23.1598 79.0829 23.0724 78.7121 22.8977C78.3457 22.723 78.0452 22.5036 77.8109 22.2393C77.5765 21.9709 77.3975 21.7003 77.2739 21.4276H77.1908V26.6818H74.4678ZM77.1333 18.0909C77.1333 18.6747 77.2143 19.1839 77.3762 19.6186C77.5381 20.0533 77.7725 20.392 78.0793 20.6349C78.3861 20.8736 78.759 20.9929 79.1979 20.9929C79.6411 20.9929 80.0161 20.8714 80.3229 20.6286C80.6298 20.3814 80.862 20.0405 81.0197 19.6058C81.1816 19.1669 81.2626 18.6619 81.2626 18.0909C81.2626 17.5241 81.1837 17.0256 81.0261 16.5952C80.8684 16.1648 80.6361 15.8281 80.3293 15.5852C80.0225 15.3423 79.6454 15.2209 79.1979 15.2209C78.7548 15.2209 78.3798 15.3381 78.0729 15.5724C77.7704 15.8068 77.5381 16.1392 77.3762 16.5696C77.2143 17 77.1333 17.5071 77.1333 18.0909ZM84.4184 26.6818V13.1818H87.1031V14.831H87.2246C87.3439 14.5668 87.5165 14.2983 87.7423 14.0256C87.9724 13.7486 88.2707 13.5185 88.6372 13.3352C89.0079 13.1477 89.4682 13.054 90.0179 13.054C90.7338 13.054 91.3943 13.2415 91.9994 13.6165C92.6045 13.9872 93.0882 14.5476 93.4504 15.2976C93.8126 16.0433 93.9937 16.9787 93.9937 18.1037C93.9937 19.1989 93.8169 20.1236 93.4632 20.8778C93.1138 21.6278 92.6365 22.1967 92.0314 22.5845C91.4305 22.968 90.7572 23.1598 90.0115 23.1598C89.4831 23.1598 89.0335 23.0724 88.6628 22.8977C88.2963 22.723 87.9959 22.5036 87.7615 22.2393C87.5271 21.9709 87.3481 21.7003 87.2246 21.4276H87.1415V26.6818H84.4184ZM87.0839 18.0909C87.0839 18.6747 87.1649 19.1839 87.3268 19.6186C87.4888 20.0533 87.7231 20.392 88.0299 20.6349C88.3368 20.8736 88.7096 20.9929 89.1486 20.9929C89.5917 20.9929 89.9667 20.8714 90.2736 20.6286C90.5804 20.3814 90.8126 20.0405 90.9703 19.6058C91.1322 19.1669 91.2132 18.6619 91.2132 18.0909C91.2132 17.5241 91.1344 17.0256 90.9767 16.5952C90.819 16.1648 90.5868 15.8281 90.2799 15.5852C89.9731 15.3423 89.596 15.2209 89.1486 15.2209C88.7054 15.2209 88.3304 15.3381 88.0236 15.5724C87.721 15.8068 87.4888 16.1392 87.3268 16.5696C87.1649 17 87.0839 17.5071 87.0839 18.0909ZM95.7338 26.6818C95.3886 26.6818 95.0647 26.6541 94.7622 26.5987C94.4639 26.5476 94.2167 26.4815 94.0207 26.4006L94.6343 24.3679C94.9539 24.4659 95.2416 24.5192 95.4973 24.5277C95.7572 24.5362 95.9809 24.4766 96.1684 24.3487C96.3602 24.2209 96.5157 24.0036 96.635 23.6967L96.7949 23.2812L93.2728 13.1818H96.1365L98.1691 20.392H98.2714L100.323 13.1818H103.206L99.39 24.0611C99.2068 24.5895 98.9575 25.0497 98.6422 25.4418C98.3311 25.8381 97.9369 26.1428 97.4596 26.3558C96.9824 26.5732 96.4071 26.6818 95.7338 26.6818ZM104.136 23.1662C103.714 23.1662 103.352 23.017 103.049 22.7188C102.751 22.4162 102.602 22.054 102.602 21.6321C102.602 21.2145 102.751 20.8565 103.049 20.5582C103.352 20.2599 103.714 20.1108 104.136 20.1108C104.545 20.1108 104.903 20.2599 105.21 20.5582C105.517 20.8565 105.67 21.2145 105.67 21.6321C105.67 21.9134 105.598 22.1712 105.453 22.4055C105.312 22.6357 105.127 22.821 104.897 22.9616C104.666 23.098 104.413 23.1662 104.136 23.1662Z" fill="#3F3F3F"/>
</svg>
