<svg width="642" height="455" viewBox="0 0 642 455" fill="none" xmlns="http://www.w3.org/2000/svg">
<path d="M579.831 52.6778C537.474 -38.0128 390.394 -1.39372 401.812 85.2482C401.871 85.6906 401.636 86.1372 401.229 86.3192L397.552 87.9624C309.976 117.293 271.895 136.303 234.703 177.365C197.217 219.877 177.098 234.377 144.963 247.154C144.004 247.536 144.165 248.957 145.187 249.101L194.895 256.101C195.689 256.213 196.027 257.175 195.485 257.766C168.749 286.939 145.595 299.604 97.0376 317.808C45.7935 343.228 5.44923 358.647 0.113525 377.846C0.0371827 378.121 0.085829 378.417 0.275623 378.629C4.65789 383.542 24.1153 376.933 67.9351 359.642C69.0385 359.206 69.8671 360.738 68.9011 361.427C30.1838 389.018 16.4973 403.424 26.0164 419.598C26.1259 419.784 26.3016 419.935 26.5022 420.015C56.2569 431.871 82.9501 414.969 134.308 369.824C181.453 318.512 199.779 302.356 214.766 300.915C214.851 300.906 214.933 300.909 215.017 300.924C230.523 303.558 254.87 317.757 299.171 343.816C352.652 371.955 383.321 376.168 438.087 368.994C438.671 368.917 439.207 369.345 439.23 369.934L442.508 454.051C442.529 454.597 442.983 454.99 443.529 454.978L470.368 454.374C470.941 454.361 471.385 453.87 471.342 453.299L464.775 365.866C464.736 365.347 465.113 364.883 465.627 364.8C614.683 340.7 679.942 200.922 607.295 93.9817C606.99 93.5316 607.095 92.9066 607.537 92.5887C621.992 82.1809 629.884 75.7498 641.674 64.5215C642.247 63.976 641.985 63.011 641.217 62.8216C630.526 60.1856 624.519 57.9758 614.795 53.5018C601.932 49.0549 594.392 49.0375 581.063 53.2305C580.579 53.3827 580.045 53.1375 579.831 52.6778Z" fill="#3F3F3F"/>
</svg>
