<svg width="29" height="21" viewBox="0 0 29 21" fill="none" xmlns="http://www.w3.org/2000/svg">
<path d="M25.2969 2.24551C23.072 -0.77593 17.635 0.782073 17.9002 4.26088C17.9097 4.38528 17.8451 4.50753 17.7315 4.5591C13.8879 5.86664 12.2166 6.71408 10.5843 8.54457C9.50473 9.78811 8.75337 10.494 7.96586 10.9933C7.5896 11.2319 7.67926 11.8889 8.12029 11.952C8.46231 12.0009 8.6102 12.4096 8.36098 12.6489C7.37308 13.5974 6.36585 14.111 4.54231 14.8054C2.42209 15.8737 0.72702 16.5458 0.343594 17.3363C0.294759 17.437 0.227973 17.4656 0.315291 17.5356C0.683104 17.8304 1.3245 18.3953 1.29856 18.866C1.29192 18.9866 1.31443 19.1052 1.36573 19.225C1.4033 19.3128 1.48036 19.3771 1.57065 19.4081C2.828 19.8411 3.99561 19.0728 6.17806 17.1242C8.12002 14.9774 8.94786 14.211 9.58606 14.0718C9.67066 14.0533 9.7583 14.0578 9.84243 14.0783C10.5274 14.2452 11.5819 14.8703 13.4137 15.9648C15.3981 17.0253 16.6669 17.3235 18.4641 17.1971C19.0528 17.1557 19.5784 17.591 19.601 18.1807L19.6827 20.3096C19.6958 20.6493 19.979 20.915 20.3188 20.9073C20.6749 20.8991 20.9515 20.5944 20.9253 20.2392L20.7465 17.8223C20.7082 17.3045 21.0761 16.8483 21.5803 16.7244C27.2575 15.329 29.7674 9.86744 27.2919 5.40844C27.0959 5.05545 27.1733 4.60538 27.4905 4.3557L27.5219 4.33094C27.9703 3.97583 27.7842 3.26502 27.2661 3.02287C27.0236 2.93774 26.8242 2.88903 26.6293 2.87595C26.1192 2.84174 25.6001 2.65721 25.2969 2.24551Z" fill="white"/>
</svg>
