<svg width="1248" height="875" viewBox="0 0 1248 875" fill="none" xmlns="http://www.w3.org/2000/svg">
<path d="M1126.66 102.07C1044.74 -73.5522 757.49 -2.72651 780.598 164.639C780.66 165.083 780.423 165.532 780.014 165.714L772.228 169.158C602.115 225.564 528.145 262.121 455.901 341.086C381.795 424.289 342.631 451.695 278.245 476.6C277.28 476.973 277.425 478.399 278.45 478.542L380.319 492.746C381.116 492.857 381.451 493.828 380.906 494.42C328.468 551.437 283.529 575.896 188.491 611.169C88.5989 660.228 10.0293 689.916 0.112813 727.021C0.0385656 727.298 0.0898595 727.593 0.268621 727.818C8.45903 738.138 48.081 724.497 139.399 688.708C140.504 688.275 141.32 689.8 140.347 690.48C59.9482 746.701 31.3608 775.094 50.6972 807.189C50.8084 807.374 50.9848 807.524 51.1851 807.604C109.101 830.632 160.958 798.164 260.888 711.2C352.592 612.386 388.161 581.369 417.295 578.671C417.379 578.663 417.46 578.666 417.543 578.679C447.657 583.694 494.962 611.005 581.127 661.184C685.35 715.474 744.971 723.453 852.002 709.469C852.586 709.392 853.122 709.817 853.145 710.405L859.588 874.061C859.61 874.606 860.062 874.99 860.608 874.978L914.661 873.773C915.234 873.76 915.679 873.269 915.636 872.698L902.741 702.743C902.702 702.223 903.081 701.758 903.596 701.676C1194.1 655.672 1321.21 385.939 1179.13 179.984C1178.82 179.533 1178.93 178.9 1179.37 178.583C1208.43 157.898 1223.86 145.428 1247.65 122.921C1248.23 122.375 1247.97 121.4 1247.2 121.214C1225.38 115.963 1213.6 111.719 1194.21 102.888C1168.97 94.2482 1154.28 94.3031 1127.89 102.618C1127.4 102.77 1126.87 102.527 1126.66 102.07Z" fill="#2EA1F1"/>
</svg>
