<svg width="1251" height="877" viewBox="0 0 1251 877" fill="none" xmlns="http://www.w3.org/2000/svg">
<path d="M1129.36 102.305C1047.25 -73.7214 759.308 -2.73287 782.474 165.017C782.535 165.461 782.299 165.911 781.889 166.092L774.082 169.545C603.561 226.08 529.413 262.72 456.996 341.866C382.709 425.262 343.451 452.73 278.905 477.693C277.94 478.066 278.085 479.492 279.11 479.635L381.237 493.872C382.034 493.984 382.369 494.955 381.824 495.547C329.259 552.696 284.211 577.211 188.944 612.566C88.8109 661.738 10.0521 691.493 0.112831 728.683C0.0385759 728.961 0.0898811 729.256 0.268639 729.481C8.47787 739.827 48.1994 726.153 139.752 690.275C140.857 689.842 141.673 691.367 140.7 692.047C60.0954 748.404 31.4344 776.864 50.8194 809.035C50.9306 809.22 51.107 809.37 51.3073 809.45C109.362 832.531 161.344 799.988 261.514 712.825C353.439 613.785 389.094 582.697 418.298 579.993C418.382 579.985 418.463 579.988 418.546 580.002C448.732 585.028 496.15 612.402 582.523 662.696C686.997 717.11 746.761 725.107 854.051 711.09C854.635 711.014 855.171 711.438 855.194 712.026L861.653 876.062C861.674 876.607 862.127 876.99 862.673 876.978L916.861 875.77C917.434 875.757 917.879 875.266 917.836 874.695L904.91 704.347C904.87 703.827 905.249 703.362 905.764 703.281C1196.96 657.172 1324.38 386.82 1181.96 180.394C1181.65 179.943 1181.76 179.31 1182.2 178.992C1211.33 158.259 1226.8 145.76 1250.65 123.199C1251.23 122.653 1250.97 121.678 1250.2 121.492C1228.33 116.228 1216.52 111.975 1197.08 103.123C1171.78 94.4634 1157.05 94.5187 1130.59 102.853C1130.11 103.005 1129.58 102.762 1129.36 102.305Z" fill="#FF6060"/>
</svg>
