<svg width="50" height="35" viewBox="0 0 50 35" fill="none" xmlns="http://www.w3.org/2000/svg">
<path d="M44.7979 3.3207C41.2077 -2.61404 31.1147 0.0487503 31.5884 6.2499C31.6048 6.46552 31.4927 6.67742 31.2956 6.76634C24.6218 9.02256 21.7199 10.4849 18.8856 13.6434C17.0129 15.7873 15.7089 17.005 14.3429 17.8665C13.6913 18.2774 13.8459 19.4149 14.6085 19.5233C15.2004 19.6075 15.4555 20.3151 15.023 20.7277C13.3084 22.3631 11.5596 23.2491 8.39478 24.4468C4.71511 26.2893 1.77295 27.4487 1.10537 28.8121C1.01982 28.9868 0.903205 29.0369 1.05545 29.158C1.69356 29.6656 2.79873 30.6521 2.76191 31.4666C2.7527 31.6704 2.79208 31.871 2.87945 32.0737C2.94461 32.2248 3.07767 32.3351 3.23335 32.3885C5.41715 33.1368 7.44458 31.8112 11.235 28.448C14.7043 24.6365 16.1257 23.3468 17.2476 23.1628C17.3326 23.1488 17.4189 23.1527 17.503 23.1706C18.6895 23.4227 20.5324 24.5081 23.7984 26.4474C27.5339 28.4313 29.8089 28.8691 33.376 28.5034C33.9626 28.4433 34.4881 28.8821 34.5108 29.4714L34.6863 34.0175C34.7074 34.5632 35.1623 34.99 35.7083 34.9776L35.8721 34.9739C36.4445 34.9609 36.8892 34.4709 36.8467 33.9L36.4813 28.9897C36.4427 28.4714 36.8101 28.0124 37.319 27.9069C47.747 25.744 52.3846 15.8937 47.7556 7.98731C47.4824 7.52068 47.5867 6.91645 48.0165 6.58834C48.2439 6.41473 48.4519 6.25014 48.6531 6.08395C49.2607 5.5821 48.9979 4.61878 48.2745 4.30628C48.1414 4.24878 48.0019 4.18578 47.8507 4.11552C47.1582 3.87388 46.6681 3.80227 46.082 3.89475C45.5786 3.9742 45.0617 3.7568 44.7979 3.3207Z" fill="#39A0FF"/>
</svg>
